<svg xmlns="http://www.w3.org/2000/svg" xmlns:xlink="http://www.w3.org/1999/xlink" xml:space="preserve" version="1.1" style="shape-rendering:geometricPrecision;text-rendering:geometricPrecision;image-rendering:optimizeQuality;" viewBox="0 0 60000 75000" x="0px" y="0px" fill-rule="evenodd" clip-rule="evenodd"><defs><style type="text/css">
   
    .fil0 {fill:black;fill-rule:nonzero}
   
  </style></defs><g><path class="fil0" d="M28558.81 19375.16c-513.56,-741.9 -826.84,-1678.95 -971.58,-2718.04 -296.94,-2131.72 119.37,-4712.52 963.34,-6867.18 220.33,-562.5 613.01,-1277.83 1116.97,-1998.17 -2.25,-659.28 -55.1,-1594.3 -192.79,-2424.68 -20.48,-51.34 -30.21,-106.67 -28.26,-162.28 -45.41,-248.45 -98.91,-484.87 -161.49,-698.44 -90.55,-309.04 -196.19,-558.9 -317.92,-706.41 -51.53,-62.44 -99.51,-94.22 -140.5,-81.66 -69.33,21.24 -156.5,83.26 -264.13,193.51 -210.89,216.02 -428.4,483.16 -620.9,747.93 -213.61,293.8 -390.76,576.43 -489.58,776.73l-0.72 -0.36c-5.02,10.15 -10.49,20.18 -16.46,30.05 -214.9,354.68 -440.58,787.1 -660.19,1271.65 -206.63,455.92 -404.43,952.19 -578.67,1466.34 -882.35,2603.51 -1001.98,5184.77 -482.12,7253.41 465.96,1854.15 1445.72,3284.89 2845,3917.6zm-454.33 29449.76c-1.44,2.29 -2.92,4.54 -4.4,6.8 282.29,630.24 420.45,1132.5 438.97,1565.67 26.5,620.17 -178.7,1078.51 -553.64,1527.15 488.31,1921.3 1518.33,4185.79 2304.8,5914.78 66.27,145.7 130.86,287.66 193.24,425.31 90.6,201.06 1.06,437.52 -200,528.12 -201.06,90.6 -437.52,1.06 -528.12,-200 -62.38,-137.65 -126.97,-279.61 -193.24,-425.31 -772.82,-1698.97 -1777.09,-3906.86 -2299.65,-5850.13 -254.09,26.17 -536.96,-23.25 -837.33,-127.72 -261.55,-90.98 -539.54,-226.14 -822.61,-387.49 178.37,850.89 408.17,1769.21 660.33,2672.72 385.4,1380.92 823.66,2730.03 1211.35,3754.05 77.66,206.24 -26.57,436.41 -232.81,514.07 -206.24,77.66 -436.41,-26.57 -514.07,-232.81 -394.06,-1040.86 -840.2,-2414.56 -1233.23,-3822.81 -341.77,-1224.58 -642.99,-2473.29 -834.62,-3550.22 -772.08,-1013.99 -3344.85,-6280.15 -4231.37,-13675.97 -521.22,-4348.3 -481.93,-9455.31 809.22,-14902.06 -19.18,-2454.38 -67.61,-5230.14 -263.69,-8535.63 -12.94,-220.05 154.95,-408.94 375,-421.88 191.96,-11.29 360.2,115.04 408.61,293.55l4685.11 14539.86c668.88,-2487.99 1495.11,-5046.36 2480.22,-7661.42 37.99,-124.85 76.28,-249.79 115.02,-374.85 -126.72,-41.65 -252.72,-83.93 -377.93,-126.36 -1865.2,-632.12 -3150.56,-2351.77 -3720.83,-4621.02 -555.05,-2208.68 -431.96,-4951.01 500.85,-7703.41l0.09 -0.25c183.21,-540.58 390.56,-1061 606.73,-1537.97 223.7,-493.55 460.71,-947.01 693.29,-1333.24 119.42,-240.47 320.07,-562.48 554.9,-885.47 210.86,-290.03 453.88,-587.52 695.9,-835.43 205.94,-210.96 406.79,-340.05 601.63,-399.75 26.52,-8.13 52.71,-15.07 78.59,-20.91 567.07,-149.26 1016.57,-173.47 1411.89,-97.74 281.47,53.91 527.63,156.11 762.19,298.2 281.23,-323.13 578.6,-625.51 885.76,-890.28 600.29,-517.47 1243.54,-897.34 1889.42,-1025 692.33,-136.83 1373.11,7.96 1993.03,561.96 333.25,297.81 644.49,715.59 924.13,1274.62 204.32,408.44 358.19,849.9 469.54,1305.23 37.65,153.96 70.5,309.43 98.84,465.69 38.22,-54.46 77.8,-104.93 118.56,-150.89 210.52,-237.39 458.32,-366.91 731.95,-347.22 163.7,11.78 321.28,76.48 468.18,202.39 1034.37,886.55 1435.79,2613.91 1459.93,4504.31 31.21,2444.95 -563.08,5201.72 -1216.84,6675.98 -1465.73,3305.29 -3163.71,4718.18 -4912.81,5171 -1332.77,345.03 -2660.5,125.55 -3929.61,-240.01 -45.54,119.15 -90.75,238.2 -135.63,357.13 -1360.03,4468.14 -2231.06,8792.45 -2683.07,12870 -306.86,2768.12 -420.75,5423.18 -363.85,7933.03 1107.55,-4309.13 2907.89,-7750.79 4708.27,-11192.38 1088.24,-2080.28 2176.48,-4160.6 3102.48,-6419.3 62.91,-183.57 252.29,-298.47 448.95,-262.43 216.6,39.69 360,247.47 320.31,464.07 -502.18,2713.23 -845.65,5013.02 -1148.56,7041.4 -986.46,6605.35 -1545.15,10346.34 -5969.37,17390.27zm-421.72 -831.98c4101.34,-6638.91 4648.97,-10302.66 5600.47,-16673.91 179.47,-1201.78 373.28,-2499.51 609.27,-3938.99 -593.34,1224.94 -1214.45,2412.29 -1835.57,3599.63 -1899.41,3630.88 -3798.83,7261.79 -4854.53,11898.5 -87.53,384.48 -198.36,984.49 -263.06,1634.3 -45.5,456.96 -67.96,938.03 -42.65,1383.47 25.23,243.39 52.19,485 80.84,724.81 224.75,446.75 459.43,903.63 705.23,1372.19zm-5648.41 -25420.8c2.1,22.4 2.3,45.18 0.51,68.13 4.11,547.32 6.86,1079.09 9.54,1597.22 31.92,6179.91 53.92,10410.73 2323.88,16499.8 163.7,-2846.45 582.92,-5843.5 1260.9,-8961.8 136.33,-627.02 283.23,-1259.21 440.6,-1896.27l-4152.87 -12888.07c77.87,2050.37 104.41,3890.4 117.44,5580.99zm3060.62 19994.06c268.56,638.62 561.16,1298.98 879.71,1984.42 -247.1,-3321.02 -186.73,-6938.09 237.81,-10767.86 82.05,-740.13 177.73,-1488.19 287.37,-2243.51 -30.27,135.21 -60.12,270.24 -89.42,405 -814.47,3746.01 -1251.04,7303.85 -1315.47,10621.95zm-3827.47 -15750.95c-501.81,3814.52 -424.95,7387.87 -45.66,10552.12 924.53,7712.84 3568.83,12919.16 4033.91,13269.87 8.55,5.64 16.88,11.6 24.97,17.87 488.84,335.36 985.84,634.91 1406.89,781.36 309.58,107.68 555.06,129.56 667.67,-2.91 260.37,-306.28 403.83,-608.61 386.89,-1004.91 -19.31,-451.56 -227.65,-1042.83 -676.13,-1893.57 -288.28,-546.86 -561.4,-1077.76 -821.62,-1595.49 -8.87,-15.05 -16.8,-30.77 -23.7,-47.09 -4362.54,-8693.09 -4866.02,-13450.25 -4953.22,-20077.25zm8756.49 -22618.78c100.13,-144.98 204.23,-289.4 311.82,-432.04 -128.04,-66.92 -260.24,-115.53 -403.13,-142.9 -47.96,-9.19 -97.62,-16.14 -149.22,-20.77 91.67,173.01 171.43,374.4 240.53,595.71zm6389.55 1459.58c-34.8,-373.75 -93.81,-746.9 -181.79,-1106.67 -98.04,-400.89 -231.57,-785.71 -407.04,-1136.47 -232.58,-464.95 -482.26,-804.21 -742.89,-1037.12 -408.57,-365.12 -855.39,-460.92 -1308.65,-371.34 -499.72,98.77 -1020.21,412.34 -1520.66,843.74 -356.43,307.25 -699.65,671.39 -1017.54,1060.8l-2.86 3.81c-5.36,6.95 -10.93,13.63 -16.65,20.13 -353.11,435.12 -674.42,900.83 -947.13,1353.42 80.41,500.73 132.45,1030.33 162.58,1518.81 225.75,-263.66 463.49,-518.22 709.93,-755.48 669.86,-644.9 1411.19,-1169.56 2164.22,-1420.42 806.29,-268.6 1616.22,-228.05 2361.47,293.72 261.54,183.12 511.78,424.96 747.01,733.07zm-8035.69 10891.69c223.18,1602.16 882.3,2908.76 2122.22,3450.32 1016.66,254.65 2053.13,372.43 3054.49,113.2 1527.63,-395.48 3033.28,-1680.59 4381.55,-4721 618.69,-1395.18 1180.98,-4013.74 1151.22,-6344.72 -21.47,-1682.07 -346.96,-3191.88 -1181.81,-3907.43 -9.89,-8.47 0,-11.37 -5.68,-11.77 -5.95,-0.42 -34.53,28.52 -78.81,78.46 -95.07,107.21 -186.78,274.42 -267.37,480.75 -214.88,550.15 -321.67,1313.6 -197.69,1956.5l1.6 6.05c131.39,498.18 208.72,1013.46 242.99,1520.29 99.34,1468.68 -189.23,3229.39 -726.19,4873.41 -542.12,1659.8 -1341.27,3212.19 -2254.48,4238.44 -372.65,418.78 -1062.72,792.54 -1840.92,925.97 -640.87,109.89 -1351.78,61.35 -2008.97,-252.74 -198.48,-94.92 -282.42,-332.78 -187.5,-531.26 94.92,-198.48 332.78,-282.42 531.26,-187.5 491.32,234.82 1034.71,269.07 1530.83,184 598.76,-102.66 1113.81,-372.36 1378.42,-669.73 840.15,-944.14 1582.22,-2393.33 2091.98,-3954.06 507.57,-1554.02 781.08,-3207.37 688.69,-4573.41 -31.11,-460.11 -100.53,-924.91 -217.99,-1370.29 -105.12,-398.59 -248.87,-782.21 -438.3,-1133.34 -291.6,-540.51 -607.4,-910.93 -937.12,-1141.78 -511.81,-358.33 -1081,-381.87 -1655.21,-190.58 -627.48,209.03 -1268.13,668.28 -1861.1,1239.16 -476.55,458.8 -917.45,985.2 -1295.06,1511.95 -5.87,8.93 -12.09,17.59 -18.64,26 -492.82,691.29 -875.73,1381.27 -1085.93,1917.93 -798.88,2039.55 -1194.53,4471.05 -916.48,6467.18z"/></g><text x="0" y="60015" fill="#ffffff" font-size="5px" font-weight="bold" font-family="'Helvetica Neue', Helvetica, Arial-Unicode, Arial, Sans-serif">Created by Olena Panasovska</text><text x="0" y="60020" fill="#ffffff" font-size="5px" font-weight="bold" font-family="'Helvetica Neue', Helvetica, Arial-Unicode, Arial, Sans-serif">from the Noun Project</text></svg>